<mxfile host="app.diagrams.net" modified="2024-01-26T18:46:00.828Z" agent="Mozilla/5.0 (Windows NT 10.0; Win64; x64) AppleWebKit/537.36 (KHTML, like Gecko) Chrome/120.0.0.0 Safari/537.36" etag="mcPip_SxqaKu72fHBt22" version="23.0.2" type="device">
  <diagram name="Pagina-1" id="bsCfIDEgioWC9dEukl5g">
    <mxGraphModel dx="1105" dy="658" grid="0" gridSize="10" guides="1" tooltips="1" connect="1" arrows="1" fold="1" page="1" pageScale="1" pageWidth="827" pageHeight="1169" math="0" shadow="0">
      <root>
        <mxCell id="0" />
        <mxCell id="1" parent="0" />
        <mxCell id="af0LZ02g_DfYxjsQCie--2" value="" style="rounded=1;whiteSpace=wrap;html=1;arcSize=3;fillColor=#D0E9ED;strokeColor=#C3DADE;" parent="1" vertex="1">
          <mxGeometry x="258" y="10" width="521" height="464" as="geometry" />
        </mxCell>
        <mxCell id="af0LZ02g_DfYxjsQCie--4" value="" style="rounded=1;whiteSpace=wrap;html=1;arcSize=5;fillColor=#FFF2CC;strokeColor=#d79b00;" parent="1" vertex="1">
          <mxGeometry x="280" y="190" width="480" height="267" as="geometry" />
        </mxCell>
        <mxCell id="af0LZ02g_DfYxjsQCie--1" value="" style="shape=image;verticalLabelPosition=bottom;labelBackgroundColor=default;verticalAlign=top;aspect=fixed;imageAspect=0;image=data:image/png,iVBORw0KGgoAAAANSUhEUgAAAJ4AAACNCAYAAABGx8NOAAAAAXNSR0ICQMB9xQAAAAlwSFlzAAAXEgAAFxIBZ5/SUgAAABl0RVh0U29mdHdhcmUATWljcm9zb2Z0IE9mZmljZX/tNXEAABqnSURBVHja7Z13eJRV2sbzgYQOhhZaJCIQjPRQhNCEAAECBEIMIZmUyZT0MqGDCkgLTQFFkC5IR9rSi4soIqigcom6LCCK4mIDXXFll/Od5+U+4WWYSSZkanL+uC8vSSbJzPm9TzvPeY7XlClTvKSknC35IUhJ8ErVB+/l9X8kCZ6UU0AjpWq1jXMNhhSTPnlHrjH55dIIoYTCCaBxlcnVGtrlGo1TTIbksxw2phb/+iP0PaUJPgmJA2HL0RmG5RiMS00Gw2U1aGN1eraqX6gavApc5UoTfBIYO8JmiDTUyNHptNlG40aTMfmWGrbJmji2secz7DP/x9ntsmUZp00NXnWuiqXJ8kl4igdbmUytNpBbNlOO3njS3IXmRY1gezp1Yldr1lJAM5cKvLpc1bjKc5WV4ElZdKGZBkMXky55Qa7B+IU5bMsGDGTHWrZiP1WtahE2K+A15qqlsnoSPAkcd6EhIZVytIaRJr1+DU8QflGDNilRy9aGhLAzTzRhf3iXLxQ2K+AFwupVFrGeBK90Q1fGZDTOMrdq00fGsJ1dgtl5P78igWYNvE4dOsTx3+UHd+tdGtythMw6dLT43jkGwyfmSQJBd6F+/WJBpwYvNmI4M8TEsrT4+CuZSbpjPAvO40lKf0pW1G5eglfCE4bIkJAqyZqEyLTExLmpsYkfZ3B3mqnVMZOZ5SM3S5nqw7hZNXijdZlMz8Gj35OtNzCTwZj/NZNeqfu9TK6+JIEogTOru1EpJMtgvJWt0ysgpMTFM130SDbOmMPmj8ljiyctYHmjprKJaTnMUmJxIjDQpsRCDd7pN06zr//2Nbu85xI7v/0cO7xsH1s2bREbm5rxwO+g3Q4q2VDc6ckQlnrYaEfhbpHXeE1ZWG5tcrjVmWaayDbOXcuOvn6InV1/hr2/6n128NWDbMe8HWzDjA1s1Qur2KKxC9j0rClsfEr2A4DMGx5ZYCnFEng3jt1g/3n/P+x/p/7H2IdM0eW9F9mR5fsVEO8D0Jh8ix4SsoSi9udJAJZq62Zee5s19gW2f+ku9u3+K+zf7/6bXT98nV3adYl9suETdnz5cbZv4T62dfZWtu7FdWz5c8vZ4nGL2cu5L7O52XPZzMwZ7IXUiWxcMlnCFGYeF27t1l0pHhcVPLX+eO8PdmLtMbbwubz7ITQYLlMtUW0FJXhuB5xOq66/Tc4ew3a+soVdPfCNsrh3Tt9htz+4rSzyz0d/Zt/s/YZ9vuVzduqNU+zokqNsz4I9+fCteH4Fe238a2zh6IVsvmk+m5M1h83KmMVmpHEIUyax8cZcNsqYyixtl50KCCgyeGr99PaP7MDru9n0URNVABqvmXS6qZpITU133wEpTRbOJNypUhLhC0bW4/YHf923oATef0/9VwHgt3d+U6weQfHFti/Yx29+zE6sPKEAuHfhXvbWnLcUt7tmyhq2bNIyxQJagnBKygtsYvJoNjr5wZjtYcFT69T6E2zehOmqn5nyKwHIk6TK7gpgiQcuU6vtre4IITf12dazVheRwKOFJ6v354k/Ffh+OvoT+/7A9+zy7svsy7e+ZJ9t+kyB5d0V77Ijrx1RINw+dzvbNHMTe2PqG/mWcNGYRewl00uKK87LzGMz02eyF9OmsslpE9mk1FHK3zM+LYt9uPbDYoEnRImJOhakBy1Hq4sRdUF3ArDEFn4NGk3DHKNxU/6+6djJysLYsoACPmH5yO3efOem4nr/dehf7Oq+qwqEX731FTu3+Rz7aN1HiiV8e+nbbP+i/Wzn/J1s86zNijte+fxKtnTCUvbKmFeUeJCsIcH46thX2dqpa5W4kSzplT1XlN9RHPCEKGxQx4EmnfFYpsYQ5E5JSIkDjp5u7lYn5hqS/1RqbZkmdmzVkSIvHsGntn5/nfxLsYCUdJAV/OXtXxQ3TJaQrNWFHReUWPAMz4BPrj7Jjr1+TMmCd7+0W4kJ109fz1ZPXq0kJeSWKSvekrdFsZiUvHy791vl59LvKS54Qmc2nVZiWAFgjsEw213cb4mzcia9/gPxQW99eT27efxGsRZPDSBZQDWEZAkJll///iv78ciP7NrBa0oy8s+d/2Tnt55XgKKkhDLiw4sPK4kJlWO2zd6muGaydmQpKX6k1/5+/He7gkeiGHbPa9vv1QR5YpWq0bRwtfUrKbFc2cwEXSwF1SJTpfqXvRbPEoQCRAKF3OOtE7cUcChOo5jwh4M/KFaMyjEiLqRYjuqBBCKJLCP9O7lteg39DAKbfoe9//YfDn9/z/1yb5CpM+Qi9nOJ9fN4K6cJ09TK0RveEFZu1cwliiWy98JZg9DcGgoIySWr48Lv9n+X75LJwpFFpBiR/o2+TpZTxHeOAE9t/e7tghgP0OfnCvg83bX6iU18ciUPE8s5EkJLLpksG4FGFpH+S2DS1+j76HWOgs48+xWxHxWf4Xqd2hHjqdCVNURHtxRnGagmJwrArlZBEKqtIbll+i/9P/07fY8jrZ2lXZDFk+fn1/3StdoQZ5ZdPDKeS9Vqu4l4jgqnxU0gnAGiOi4kyITo/8XXnAWd2vWunb38Xtyn1eqcde7D00olj6QmJAwSpRKK58x3HtxZamtoSa76u9RxX7ZON80Z8HkUdMnx8YP5h6NAR/urngKcJ4i2D50Jn2dBB0tHbUISFvuL9nwFfOla3WhHnvX1DPcarenIP4wb9IFQR4aExFnwaQ2Ogs9DoLubSNBOhITDufAZ4uOHOAI+t4ZOExnZKNdgvEIfwMZ5ayQUThR5FpHtGqI1newd87ltnS4kKKh6dpL+OL15qjdJGJwvSuCww/F1WEiYrz3hc0voaJRDVlLSq6I47IwtMCnLEkVmMgIYLlS2RIGncrHeqZqEBLEN5ojNfqmi7XCI9vrMpKT59prv4m7QldMMHdpWlE0oyJWL73rRwz8mNf0OrUmyJmEEph0Uy+W6VTJBQ2uy9cZPZQbrvplujt7wQ0hwSL3iZrpuFdelJmjHiX46T9oKKy0S5zkytbqVxZ1s5TZxXVhISBOTwai42IIO40i5TnSkUnQy62JiBhQn3nM1eMLFVsrS6o+IjX+5yO4r2q6Ey/0qKDCw5sO6XHdwsRV0MZoYkcW6c4uT1N1WKnGGNzUxMe9hXa6rrR1lR1Wy9IZz9EZc1UEsVfQsF+d2/+QhUlO43CJZPVdaOyWL1UXHxMqEwvNEIRGtW0Zi4pKHmWTq0oSCJmBKa+eZoqMGwuqF9uzZrKi7Gq60dpW0UTFxYltMWjvPtXrpidqlFDIVxeq50tpVz4C1k+WTEmH1Aopi9Vxm7TQREeFipolcRM+3esmxcdOLYvVsPdllD5UROxRk7dITtJvpD6axq4UdgimOJByOFXmru+c09Bf4uvrYavUKdImWRu17ijbMXe2SI4OlUeJweOTgwQNttXoFbtp7KnRC4tyqhM+xEscjUzUJ6zg3j9qylWa1PYlqbGIBPe2DEH83ndSnU/oSPseK9nCRZNxoXK8eXRRTqbDdDGvtSfRCH08Hj+aUEHxi9JeEz3ESnSuaiMgk1Q1FVnczLLYn4RrLBp4OHo0JowGKzhyIU1pFGwD0mafExb3J2alRWJJhsdSBmwSbeDp4/9j+D2UiE1k9R82dk7q/psez2285O77YRnvEWpJhvmlfDlkJdZg+5eng0dBDmktn7xGvUgVntz2CgzvDa3rbCh59Y1WuhlxtPB08mkdMo2HtNdRaqmDR2Wf63BOiop4rzN1aAq8arrAM8nTwaPQrTVMv7hh/KdskzmWkJWgPm7lbm8F7jKu9p4NX3ItLpIommrOMOO86Jafq7FaCJwFxqMSZjGaNm7XCFprFJlEJnpRdJdriQ3v0HIzqSEVLcZ4ET8quEqNto8MGjyoozpPgSdlV4hRaUnT0CsR5VS01DUjwpOwq0SaVokl4GxxZrOdJ8KQcktmmxid+xBlqrEow7ovzJHhSdpXoVMlM0l3mDNHRx5qWCskSPCmHgJeVpPueM9Scq7alNikJnpRdRacFFfB0+p84Q4HWMlsJnpTDPn/OUEs0nFSR4EkwnAlea676qnMYEjwpp4DXxlotT4In5Ujw2qHFToInwXCsaFi30qGiN/xOrXVosXugS0WCJ+WYcopWd02CJ8GT4EnwSrYu7P7y7iwVjeZTCZ4Ez2kSTQJGjeZDJBd+SC4keFKOkzhfGx8ZuZ0z1FZmtRI8p4guxqHPflj//otkHU+C5zQtfC5P+ew7d+iQxRlqJXcuJHhOkTjU7VvTly5YbsFVVzYJSPAcqvzisU7/b87PM1xPojtFtkVJQJyQ0cZoznF+unEFoB+vomwElYA4TOJG7xGDBm3k/HTheqJYHcieKgmecyXO1Aa1aEWJRUcuf9WE0DK2gheUGpdw3lOhm5RuUmanSPCcI7FVhviuv6p4XM3WU2ZV8YJ2+AFxXJlco7nGc020UZO4aGoQ/fCZXAu4VjTx9z/XtUNHlhCuYdNSp9lNM9JmsNmZs9mCUQvYmilr2N6Fe9lH6z5ShvbIaVGOlxjYox0xknYs+ph1H5cr7EC3mI/XADWYEC66CtwI+Exco2wUgToGsD7PNYvrlRo1auzp8XRnNqh3KJuTNcdumpczT4FuyYQlbMOMDezQ4kPs7PqzylRQAk/Ox3OsxASB8ND+q/k698BBnzrW5iGbTwQth5qLL14YzDWIayRXIpeOy1AEEbCpXNkAcAbB17Nzlz/6dO/O8rJmsaUTltpFyyYtYyufX8nenPYm2zV/Fzu+/Dj7fMvn7NrBa+z3479L8BxcRhHDehr7+xuRWDSxllhYG0VbAUP1/NEzT2lxKAAM5xpWBEVwPcsVA2jJYk5t36rV6cF9+7FxulFs2+xtdtH2udsV4PYt3MeOvX5MGcp4adcl9uORH5UPRo6idZxOrD1299bu6BjqSKG7LtpzNVInFrZMfRdxHpnJx2kkLdpbOnF1Bs22Khjg9uIKg+VMq1e79oLo8HCWEDmCvbPsGHtv5XvF1omVJ9jJ1SeVhOLc5nPs4q6LirVTx3cSPMdo8eT5Cni9u3Z/BfGd2Cqrau2yFWu3ZpfHi2rhBzQChE8UUWRum6ngpWr2cK7kZwcNvpIUPZLtXridXdhxwS4i2C7vvsyu7rvKrh++rmSzt07cktbOCdlslk7/R6UKFciwdC8svivogpVHAF8lAPgoZmDUeAjVQnbjjyehJ7nfXl26bEhLSGRzxk5T7qOwh34++rNyvQABR5Pe6ZoBgk5aO8fpwOu7744lCw8/yNd1MDxjY5tnIFuArywA9AaE5fGDiqpKKuvZCGWafj7VfIyZiUl/8SeFXdx9QbFMxRWBRiLXKq6TktA5TjQ14IXs0XcIvFbNAyfwde2LvKBhQWNoC7tET33rogDxYSSsZxWY3wDEfkOjwsIOmQxGtmL6YgUSe4hAE5I3ODpniywxKuoMQqhutrhZm+6rtfN1oY9iV4Q6U0Mb1KuXzi3ebeUWnv1X5HWhHqSbx2/kl1BaNGv+HLLZDsgFCr0+1FkXJJexUCOkIHT4iCHhh+mPpwt35YJ6nrVLiBpxFpsMvdB/V2A262zwRLZcAU+DP2o9A3kmlJSRpLtJb+Ly3otyUT3P2k3m6zgEpbYmqoHbtt3e6ATwHriySmS4A0P6KLd1U3cDBaxycd1b4jr4hMioT1Cb7aNKKqoXdnOj08CzYPVqIOXuCKunS41PuEZvhoY3y8V1X+VfBa833G7k5zcWu1nBqNcWmlS4Cjz1zkh9xARUVH62fevW8+gNkQmnoqRcZPcsn4gzFWF9+u2EteuL02SP2Xo7t1PBM7N6FbGBnG/1uOJjhg07SW+KLt2VC+2+CUWyJp6uBk1SWbsAWLvKtlg7V4FnbvVErDfcp5pPdiYSjTObTsvFdiNR4ieabAObNJvO1ysasV0b9G/abO2cDp6VWO9xZLjUdBr7zNNdVtKbm5iRc4dG18tFd72ou2f6qIkKdBEDBhzi65SAbqXOmOxeu7CLkV0OnoWm07qo63Wl3Qwy4SMGh79HbzJv7GSZ5bpRFmuIib1cyds7ja9RJGLzlmgarl4Ua+dK8NRWT+xmtBEdzxW8vTPoTdKbpc5Wufiuk2gCyEhMuulbu/Y49FaGwks9jli9oq2xnUvBs7CbURvFx05INOL8GjR4XsR7NAhGQuB8iZFjysmxli0Xogt9CBKK5vBWVWyp27kTeMLqiZNt9XEvQne4XG27li0X0Zsek5p+5/z2cxIGJ+rqgW+UOJs+/369etPkJz1cbC+0t4mEokJRXKzLwTNrt6+IrTThcnujZd4wqHefv0n4nCuqo4p2p5Hhw05R4y6y2H5wsY3hYkWxuIwngmfucp9Al0MoCpTJQ0JDD4jiMpl/CYdjoRMZbHxkJI2ioGRCgxDoaexQ+D6si3UL8Cy43KqIGwKQqofhTaeNDA8/Lcos5AYkJI4pm1Al4W6PXfQXPMkzoXQyBFWHQIRERc5i3Q48C2c9qiNFD0RjIb3peK6M2IiIM8qUgEyTtHwOsHRiBIV+ZMzXHLpcirNxWrCnKq7zUWexJQG8Mmbxnh/qRD2QbCTSh0FPooj55O6G/RIJEdMZ4uKuVqtSbRyOow5HvN0WrWwiriv3sC7WrcCzEO9Vwpv0R7LRC2d0aX8wU7hd2c1SfFG3CT3EyviJZ0d8yR/uUchgn8WWWBCSCbE74V1c6NwKPCvJRi0UKdviyRsO+LLCevfZK+DbOG+NhOghJAZl381eh36IiQ8EXRS6TtqjvlpHlUyULS50bgeehUaCKqpMNwg7G5HC8j0THLw5R29UzmzQ7F3ZTmV7EiFmnZCG9O17yAy6fugaaooMtmpxkwm3B89CpitOp6nhG47AN6NtixZLaDtHZLwy7it8N0L01FEzJz285EEQ06mha4YKQzV7Q+e24FmZauALsx8EtxuBLZz0OrVqTaH4RO16ZXPB/aLPY89r2/OtnFET993jfn5zMAUsCZ6kL2qo5tDZ3HXi8eBZga8OAt226I4YilILTaQy9ezSZQs9xaKzRe503LNyoj5HGtq//995EkGZazoe3uHwJO3hXgV0FR52Z8KjwbMCX20kHK2xr0tjE2IxEi2bP8VzDSNjrogPmbqZS2tfH50GU8dyGYna39q1br0CU7tSMHRzKKoG7RDO+JpbOntD5xHgWYn5xDiMFuiUGICznRSnZNBgyJDg4B1ZOv0t8aFT2zYF1aXFrVKZSRxBJC9AVq5alWrPI54zoL1pEB7e1niY65glEg6BzmPAswBfZXQvN8RdCp0Qn0Rgi0dxvfyDnjx8YNh7Aj4Kqqm/jCxBSQWOZtWJvVZSXETk5/Xr1s3jn0cu9l21qNGFYpRcCzzEtfBQ5ycSjoLOo8Azg08UmR/F3mFTuIqecL0xKA1Q4DzK389vfmJU1FdiMcgS0J1bJaX8QpacLJzIVkXy0Oapp5ZhJHAWQhENXGtvJBHN8fDWUBWHyzoSOI8Ez8L2WgXEI2KIZEs8xaHI0hIQy1CNagwtBFkA9XR4ioE8dd+XYlcKIUTf3N3h1yMudmwXtA7zp3Ng/RNRKhmA/e/WiOfq4uGtiIfZKdB5JHgW4BOTqGri6Q1AdvYMYpholAvSEFSPadboiUXRQ8I/VgNI1oIW0d0TEbLStOMgNvTVLhUWbizeZzpi3pFotOiN+tyT6HushXiugiOTiBIFngo+ddxXCZ0tvirr1xn7jeGqOczpAkAe+8yJHDT4FGV76kWk0gO5LneZ5UKb+ASbGPkqRMkT/f30IKmAy0DyoEFnST8kYK1g5eqhCaOSyrU6FTqPBs8G69cAsV8b9JL1w0LEqgDMQQw0vnVg4HJaRHUmLOJBKsk4E0QBGp3uohYw88tjYiIiPu0a1HETJumPUVk4PYAbjuOi3RD7BsAbqK1cOWckESUWPDP4hPWriNivNtxKABZATLBXAyiuQxgFqzGeYiSCMCUu/rqlW4PIzZH1oZ0AypIpRiQVJVmhhIBeQxeT0M8guMVdr+Yii0yuNKRbt508U5/K/8Zx+HuzEULo8H4iAFx3hBtPImOtA2/gUitX4sAzc71q61cZwbMvFqA5ABQWMBwxYCKyvgxYwXwI+UK/+HTbtm8O6z/whCFW870zrsNKS0j8hWLQHp07b/Nv2PBl/ndMAGyjVe40GaWRkchUQwFcEIDzR/Lgg8/hvoKwK6ErUeBZif3KqQD0UQEYgG23LtgqCoN7isViGuG6slH/Gi1AJAgIBu6aVwzo2ftgeGjoO9oR0ZdIBIwtYJE7F68hyxoWEnI0qEWLNc0DApZ43b2OazxAG4OHIAewpSBR0qAWNxgxbDAeqOZmwFVxB7daKsCz4n7LYQGqwALWgQtuiiSkI6xFXyxmJJKRBMRNKVj4bK9712oJGMcJICFb7nkT3ysAG6uCzITfk4kwwIiHQcAWDuvWE4Xz1tjUfwwPliXgyrgLcCUevAIAFBawOmLA+siCmyMR6QQI++Bk1VDUwGIBorhWKwXxVQYKtAJKE6xkrtf9d7uJfxPfk4PXZcK6Csh0cP0abANGoCzUD7B1hrUORMNEA7yPR/G+HgDO3aArFeBZAdD8Hg8fWMGGKghbIUDvggXvgwLsEK97V2VFA8g4wKKFK9TBUqrvddNDOnxPIjprNIjTovBzwwF8P9Qiu8Iit0Hs9gTOo/hix6Ea3kd5TwCu1IFnAUCRhAg3XBmLWAMQihuNmmDBW3ndu1orGIeQesE9hwKWQXDV4bCU5goHuIPw/f3x+t6AuyvOrraHCw1EOPA4HgpflIqqq6ybN96HW7pUCV7BWbD6Mhn1pTCPYqEFiI8Bgqawik8ByDYI7tvDOol738z1NL7eARC3xetbAO6mcJ+N4EJ9UXvzwUNhFTZPAa7Ug2cDhCIeFCBWgaXxAYy1AUZ9QOIHYPwBZ2Ov++91a4x/98f3PQYrVh9ZaB0VZNUBfmXUJMtbg83TgJPgFQyg+Y1GAkRvMxgrA8iqsEjVve7d+2bp7jcffL06vr8qXl8ZP08NWTkVaCUCNgle8UEUMAogBZTqe9/M735T/7u3Cq5yqp+lhqxEgSbBsx+IlqAs41Xw3W+Wvs/izyzxn6UEymlwlhqoJHhSbqv/BweZwbmF4PgUAAAAAElFTkSuQmCC;" parent="1" vertex="1">
          <mxGeometry x="330" y="240" width="78.44" height="70" as="geometry" />
        </mxCell>
        <mxCell id="af0LZ02g_DfYxjsQCie--11" value="" style="shape=image;verticalLabelPosition=bottom;labelBackgroundColor=default;verticalAlign=top;aspect=fixed;imageAspect=0;image=data:image/png,iVBORw0KGgoAAAANSUhEUgAAAJ4AAACNCAYAAABGx8NOAAAAAXNSR0ICQMB9xQAAAAlwSFlzAAAXEgAAFxIBZ5/SUgAAABl0RVh0U29mdHdhcmUATWljcm9zb2Z0IE9mZmljZX/tNXEAABqnSURBVHja7Z13eJRV2sbzgYQOhhZaJCIQjPRQhNCEAAECBEIMIZmUyZT0MqGDCkgLTQFFkC5IR9rSi4soIqigcom6LCCK4mIDXXFll/Od5+U+4WWYSSZkanL+uC8vSSbJzPm9TzvPeY7XlClTvKSknC35IUhJ8ErVB+/l9X8kCZ6UU0AjpWq1jXMNhhSTPnlHrjH55dIIoYTCCaBxlcnVGtrlGo1TTIbksxw2phb/+iP0PaUJPgmJA2HL0RmG5RiMS00Gw2U1aGN1eraqX6gavApc5UoTfBIYO8JmiDTUyNHptNlG40aTMfmWGrbJmji2secz7DP/x9ntsmUZp00NXnWuiqXJ8kl4igdbmUytNpBbNlOO3njS3IXmRY1gezp1Yldr1lJAM5cKvLpc1bjKc5WV4ElZdKGZBkMXky55Qa7B+IU5bMsGDGTHWrZiP1WtahE2K+A15qqlsnoSPAkcd6EhIZVytIaRJr1+DU8QflGDNilRy9aGhLAzTzRhf3iXLxQ2K+AFwupVFrGeBK90Q1fGZDTOMrdq00fGsJ1dgtl5P78igWYNvE4dOsTx3+UHd+tdGtythMw6dLT43jkGwyfmSQJBd6F+/WJBpwYvNmI4M8TEsrT4+CuZSbpjPAvO40lKf0pW1G5eglfCE4bIkJAqyZqEyLTExLmpsYkfZ3B3mqnVMZOZ5SM3S5nqw7hZNXijdZlMz8Gj35OtNzCTwZj/NZNeqfu9TK6+JIEogTOru1EpJMtgvJWt0ysgpMTFM130SDbOmMPmj8ljiyctYHmjprKJaTnMUmJxIjDQpsRCDd7pN06zr//2Nbu85xI7v/0cO7xsH1s2bREbm5rxwO+g3Q4q2VDc6ckQlnrYaEfhbpHXeE1ZWG5tcrjVmWaayDbOXcuOvn6InV1/hr2/6n128NWDbMe8HWzDjA1s1Qur2KKxC9j0rClsfEr2A4DMGx5ZYCnFEng3jt1g/3n/P+x/p/7H2IdM0eW9F9mR5fsVEO8D0Jh8ix4SsoSi9udJAJZq62Zee5s19gW2f+ku9u3+K+zf7/6bXT98nV3adYl9suETdnz5cbZv4T62dfZWtu7FdWz5c8vZ4nGL2cu5L7O52XPZzMwZ7IXUiWxcMlnCFGYeF27t1l0pHhcVPLX+eO8PdmLtMbbwubz7ITQYLlMtUW0FJXhuB5xOq66/Tc4ew3a+soVdPfCNsrh3Tt9htz+4rSzyz0d/Zt/s/YZ9vuVzduqNU+zokqNsz4I9+fCteH4Fe238a2zh6IVsvmk+m5M1h83KmMVmpHEIUyax8cZcNsqYyixtl50KCCgyeGr99PaP7MDru9n0URNVABqvmXS6qZpITU133wEpTRbOJNypUhLhC0bW4/YHf923oATef0/9VwHgt3d+U6weQfHFti/Yx29+zE6sPKEAuHfhXvbWnLcUt7tmyhq2bNIyxQJagnBKygtsYvJoNjr5wZjtYcFT69T6E2zehOmqn5nyKwHIk6TK7gpgiQcuU6vtre4IITf12dazVheRwKOFJ6v354k/Ffh+OvoT+/7A9+zy7svsy7e+ZJ9t+kyB5d0V77Ijrx1RINw+dzvbNHMTe2PqG/mWcNGYRewl00uKK87LzGMz02eyF9OmsslpE9mk1FHK3zM+LYt9uPbDYoEnRImJOhakBy1Hq4sRdUF3ArDEFn4NGk3DHKNxU/6+6djJysLYsoACPmH5yO3efOem4nr/dehf7Oq+qwqEX731FTu3+Rz7aN1HiiV8e+nbbP+i/Wzn/J1s86zNijte+fxKtnTCUvbKmFeUeJCsIcH46thX2dqpa5W4kSzplT1XlN9RHPCEKGxQx4EmnfFYpsYQ5E5JSIkDjp5u7lYn5hqS/1RqbZkmdmzVkSIvHsGntn5/nfxLsYCUdJAV/OXtXxQ3TJaQrNWFHReUWPAMz4BPrj7Jjr1+TMmCd7+0W4kJ109fz1ZPXq0kJeSWKSvekrdFsZiUvHy791vl59LvKS54Qmc2nVZiWAFgjsEw213cb4mzcia9/gPxQW99eT27efxGsRZPDSBZQDWEZAkJll///iv78ciP7NrBa0oy8s+d/2Tnt55XgKKkhDLiw4sPK4kJlWO2zd6muGaydmQpKX6k1/5+/He7gkeiGHbPa9vv1QR5YpWq0bRwtfUrKbFc2cwEXSwF1SJTpfqXvRbPEoQCRAKF3OOtE7cUcChOo5jwh4M/KFaMyjEiLqRYjuqBBCKJLCP9O7lteg39DAKbfoe9//YfDn9/z/1yb5CpM+Qi9nOJ9fN4K6cJ09TK0RveEFZu1cwliiWy98JZg9DcGgoIySWr48Lv9n+X75LJwpFFpBiR/o2+TpZTxHeOAE9t/e7tghgP0OfnCvg83bX6iU18ciUPE8s5EkJLLpksG4FGFpH+S2DS1+j76HWOgs48+xWxHxWf4Xqd2hHjqdCVNURHtxRnGagmJwrArlZBEKqtIbll+i/9P/07fY8jrZ2lXZDFk+fn1/3StdoQZ5ZdPDKeS9Vqu4l4jgqnxU0gnAGiOi4kyITo/8XXnAWd2vWunb38Xtyn1eqcde7D00olj6QmJAwSpRKK58x3HtxZamtoSa76u9RxX7ZON80Z8HkUdMnx8YP5h6NAR/urngKcJ4i2D50Jn2dBB0tHbUISFvuL9nwFfOla3WhHnvX1DPcarenIP4wb9IFQR4aExFnwaQ2Ogs9DoLubSNBOhITDufAZ4uOHOAI+t4ZOExnZKNdgvEIfwMZ5ayQUThR5FpHtGqI1newd87ltnS4kKKh6dpL+OL15qjdJGJwvSuCww/F1WEiYrz3hc0voaJRDVlLSq6I47IwtMCnLEkVmMgIYLlS2RIGncrHeqZqEBLEN5ojNfqmi7XCI9vrMpKT59prv4m7QldMMHdpWlE0oyJWL73rRwz8mNf0OrUmyJmEEph0Uy+W6VTJBQ2uy9cZPZQbrvplujt7wQ0hwSL3iZrpuFdelJmjHiX46T9oKKy0S5zkytbqVxZ1s5TZxXVhISBOTwai42IIO40i5TnSkUnQy62JiBhQn3nM1eMLFVsrS6o+IjX+5yO4r2q6Ey/0qKDCw5sO6XHdwsRV0MZoYkcW6c4uT1N1WKnGGNzUxMe9hXa6rrR1lR1Wy9IZz9EZc1UEsVfQsF+d2/+QhUlO43CJZPVdaOyWL1UXHxMqEwvNEIRGtW0Zi4pKHmWTq0oSCJmBKa+eZoqMGwuqF9uzZrKi7Gq60dpW0UTFxYltMWjvPtXrpidqlFDIVxeq50tpVz4C1k+WTEmH1Aopi9Vxm7TQREeFipolcRM+3esmxcdOLYvVsPdllD5UROxRk7dITtJvpD6axq4UdgimOJByOFXmru+c09Bf4uvrYavUKdImWRu17ijbMXe2SI4OlUeJweOTgwQNttXoFbtp7KnRC4tyqhM+xEscjUzUJ6zg3j9qylWa1PYlqbGIBPe2DEH83ndSnU/oSPseK9nCRZNxoXK8eXRRTqbDdDGvtSfRCH08Hj+aUEHxi9JeEz3ESnSuaiMgk1Q1FVnczLLYn4RrLBp4OHo0JowGKzhyIU1pFGwD0mafExb3J2alRWJJhsdSBmwSbeDp4/9j+D2UiE1k9R82dk7q/psez2285O77YRnvEWpJhvmlfDlkJdZg+5eng0dBDmktn7xGvUgVntz2CgzvDa3rbCh59Y1WuhlxtPB08mkdMo2HtNdRaqmDR2Wf63BOiop4rzN1aAq8arrAM8nTwaPQrTVMv7hh/KdskzmWkJWgPm7lbm8F7jKu9p4NX3ItLpIommrOMOO86Jafq7FaCJwFxqMSZjGaNm7XCFprFJlEJnpRdJdriQ3v0HIzqSEVLcZ4ET8quEqNto8MGjyoozpPgSdlV4hRaUnT0CsR5VS01DUjwpOwq0SaVokl4GxxZrOdJ8KQcktmmxid+xBlqrEow7ovzJHhSdpXoVMlM0l3mDNHRx5qWCskSPCmHgJeVpPueM9Scq7alNikJnpRdRacFFfB0+p84Q4HWMlsJnpTDPn/OUEs0nFSR4EkwnAlea676qnMYEjwpp4DXxlotT4In5Ujw2qHFToInwXCsaFi30qGiN/xOrXVosXugS0WCJ+WYcopWd02CJ8GT4EnwSrYu7P7y7iwVjeZTCZ4Ez2kSTQJGjeZDJBd+SC4keFKOkzhfGx8ZuZ0z1FZmtRI8p4guxqHPflj//otkHU+C5zQtfC5P+ew7d+iQxRlqJXcuJHhOkTjU7VvTly5YbsFVVzYJSPAcqvzisU7/b87PM1xPojtFtkVJQJyQ0cZoznF+unEFoB+vomwElYA4TOJG7xGDBm3k/HTheqJYHcieKgmecyXO1Aa1aEWJRUcuf9WE0DK2gheUGpdw3lOhm5RuUmanSPCcI7FVhviuv6p4XM3WU2ZV8YJ2+AFxXJlco7nGc020UZO4aGoQ/fCZXAu4VjTx9z/XtUNHlhCuYdNSp9lNM9JmsNmZs9mCUQvYmilr2N6Fe9lH6z5ShvbIaVGOlxjYox0xknYs+ph1H5cr7EC3mI/XADWYEC66CtwI+Exco2wUgToGsD7PNYvrlRo1auzp8XRnNqh3KJuTNcdumpczT4FuyYQlbMOMDezQ4kPs7PqzylRQAk/Ox3OsxASB8ND+q/k698BBnzrW5iGbTwQth5qLL14YzDWIayRXIpeOy1AEEbCpXNkAcAbB17Nzlz/6dO/O8rJmsaUTltpFyyYtYyufX8nenPYm2zV/Fzu+/Dj7fMvn7NrBa+z3479L8BxcRhHDehr7+xuRWDSxllhYG0VbAUP1/NEzT2lxKAAM5xpWBEVwPcsVA2jJYk5t36rV6cF9+7FxulFs2+xtdtH2udsV4PYt3MeOvX5MGcp4adcl9uORH5UPRo6idZxOrD1299bu6BjqSKG7LtpzNVInFrZMfRdxHpnJx2kkLdpbOnF1Bs22Khjg9uIKg+VMq1e79oLo8HCWEDmCvbPsGHtv5XvF1omVJ9jJ1SeVhOLc5nPs4q6LirVTx3cSPMdo8eT5Cni9u3Z/BfGd2Cqrau2yFWu3ZpfHi2rhBzQChE8UUWRum6ngpWr2cK7kZwcNvpIUPZLtXridXdhxwS4i2C7vvsyu7rvKrh++rmSzt07cktbOCdlslk7/R6UKFciwdC8svivogpVHAF8lAPgoZmDUeAjVQnbjjyehJ7nfXl26bEhLSGRzxk5T7qOwh34++rNyvQABR5Pe6ZoBgk5aO8fpwOu7744lCw8/yNd1MDxjY5tnIFuArywA9AaE5fGDiqpKKuvZCGWafj7VfIyZiUl/8SeFXdx9QbFMxRWBRiLXKq6TktA5TjQ14IXs0XcIvFbNAyfwde2LvKBhQWNoC7tET33rogDxYSSsZxWY3wDEfkOjwsIOmQxGtmL6YgUSe4hAE5I3ODpniywxKuoMQqhutrhZm+6rtfN1oY9iV4Q6U0Mb1KuXzi3ebeUWnv1X5HWhHqSbx2/kl1BaNGv+HLLZDsgFCr0+1FkXJJexUCOkIHT4iCHhh+mPpwt35YJ6nrVLiBpxFpsMvdB/V2A262zwRLZcAU+DP2o9A3kmlJSRpLtJb+Ly3otyUT3P2k3m6zgEpbYmqoHbtt3e6ATwHriySmS4A0P6KLd1U3cDBaxycd1b4jr4hMioT1Cb7aNKKqoXdnOj08CzYPVqIOXuCKunS41PuEZvhoY3y8V1X+VfBa833G7k5zcWu1nBqNcWmlS4Cjz1zkh9xARUVH62fevW8+gNkQmnoqRcZPcsn4gzFWF9+u2EteuL02SP2Xo7t1PBM7N6FbGBnG/1uOJjhg07SW+KLt2VC+2+CUWyJp6uBk1SWbsAWLvKtlg7V4FnbvVErDfcp5pPdiYSjTObTsvFdiNR4ieabAObNJvO1ysasV0b9G/abO2cDp6VWO9xZLjUdBr7zNNdVtKbm5iRc4dG18tFd72ou2f6qIkKdBEDBhzi65SAbqXOmOxeu7CLkV0OnoWm07qo63Wl3Qwy4SMGh79HbzJv7GSZ5bpRFmuIib1cyds7ja9RJGLzlmgarl4Ua+dK8NRWT+xmtBEdzxW8vTPoTdKbpc5Wufiuk2gCyEhMuulbu/Y49FaGwks9jli9oq2xnUvBs7CbURvFx05INOL8GjR4XsR7NAhGQuB8iZFjysmxli0Xogt9CBKK5vBWVWyp27kTeMLqiZNt9XEvQne4XG27li0X0Zsek5p+5/z2cxIGJ+rqgW+UOJs+/369etPkJz1cbC+0t4mEokJRXKzLwTNrt6+IrTThcnujZd4wqHefv0n4nCuqo4p2p5Hhw05R4y6y2H5wsY3hYkWxuIwngmfucp9Al0MoCpTJQ0JDD4jiMpl/CYdjoRMZbHxkJI2ioGRCgxDoaexQ+D6si3UL8Cy43KqIGwKQqofhTaeNDA8/Lcos5AYkJI4pm1Al4W6PXfQXPMkzoXQyBFWHQIRERc5i3Q48C2c9qiNFD0RjIb3peK6M2IiIM8qUgEyTtHwOsHRiBIV+ZMzXHLpcirNxWrCnKq7zUWexJQG8Mmbxnh/qRD2QbCTSh0FPooj55O6G/RIJEdMZ4uKuVqtSbRyOow5HvN0WrWwiriv3sC7WrcCzEO9Vwpv0R7LRC2d0aX8wU7hd2c1SfFG3CT3EyviJZ0d8yR/uUchgn8WWWBCSCbE74V1c6NwKPCvJRi0UKdviyRsO+LLCevfZK+DbOG+NhOghJAZl381eh36IiQ8EXRS6TtqjvlpHlUyULS50bgeehUaCKqpMNwg7G5HC8j0THLw5R29UzmzQ7F3ZTmV7EiFmnZCG9O17yAy6fugaaooMtmpxkwm3B89CpitOp6nhG47AN6NtixZLaDtHZLwy7it8N0L01FEzJz285EEQ06mha4YKQzV7Q+e24FmZauALsx8EtxuBLZz0OrVqTaH4RO16ZXPB/aLPY89r2/OtnFET993jfn5zMAUsCZ6kL2qo5tDZ3HXi8eBZga8OAt226I4YilILTaQy9ezSZQs9xaKzRe503LNyoj5HGtq//995EkGZazoe3uHwJO3hXgV0FR52Z8KjwbMCX20kHK2xr0tjE2IxEi2bP8VzDSNjrogPmbqZS2tfH50GU8dyGYna39q1br0CU7tSMHRzKKoG7RDO+JpbOntD5xHgWYn5xDiMFuiUGICznRSnZNBgyJDg4B1ZOv0t8aFT2zYF1aXFrVKZSRxBJC9AVq5alWrPI54zoL1pEB7e1niY65glEg6BzmPAswBfZXQvN8RdCp0Qn0Rgi0dxvfyDnjx8YNh7Aj4Kqqm/jCxBSQWOZtWJvVZSXETk5/Xr1s3jn0cu9l21qNGFYpRcCzzEtfBQ5ycSjoLOo8Azg08UmR/F3mFTuIqecL0xKA1Q4DzK389vfmJU1FdiMcgS0J1bJaX8QpacLJzIVkXy0Oapp5ZhJHAWQhENXGtvJBHN8fDWUBWHyzoSOI8Ez8L2WgXEI2KIZEs8xaHI0hIQy1CNagwtBFkA9XR4ioE8dd+XYlcKIUTf3N3h1yMudmwXtA7zp3Ng/RNRKhmA/e/WiOfq4uGtiIfZKdB5JHgW4BOTqGri6Q1AdvYMYpholAvSEFSPadboiUXRQ8I/VgNI1oIW0d0TEbLStOMgNvTVLhUWbizeZzpi3pFotOiN+tyT6HushXiugiOTiBIFngo+ddxXCZ0tvirr1xn7jeGqOczpAkAe+8yJHDT4FGV76kWk0gO5LneZ5UKb+ASbGPkqRMkT/f30IKmAy0DyoEFnST8kYK1g5eqhCaOSyrU6FTqPBs8G69cAsV8b9JL1w0LEqgDMQQw0vnVg4HJaRHUmLOJBKsk4E0QBGp3uohYw88tjYiIiPu0a1HETJumPUVk4PYAbjuOi3RD7BsAbqK1cOWckESUWPDP4hPWriNivNtxKABZATLBXAyiuQxgFqzGeYiSCMCUu/rqlW4PIzZH1oZ0AypIpRiQVJVmhhIBeQxeT0M8guMVdr+Yii0yuNKRbt508U5/K/8Zx+HuzEULo8H4iAFx3hBtPImOtA2/gUitX4sAzc71q61cZwbMvFqA5ABQWMBwxYCKyvgxYwXwI+UK/+HTbtm8O6z/whCFW870zrsNKS0j8hWLQHp07b/Nv2PBl/ndMAGyjVe40GaWRkchUQwFcEIDzR/Lgg8/hvoKwK6ErUeBZif3KqQD0UQEYgG23LtgqCoN7isViGuG6slH/Gi1AJAgIBu6aVwzo2ftgeGjoO9oR0ZdIBIwtYJE7F68hyxoWEnI0qEWLNc0DApZ43b2OazxAG4OHIAewpSBR0qAWNxgxbDAeqOZmwFVxB7daKsCz4n7LYQGqwALWgQtuiiSkI6xFXyxmJJKRBMRNKVj4bK9712oJGMcJICFb7nkT3ysAG6uCzITfk4kwwIiHQcAWDuvWE4Xz1tjUfwwPliXgyrgLcCUevAIAFBawOmLA+siCmyMR6QQI++Bk1VDUwGIBorhWKwXxVQYKtAJKE6xkrtf9d7uJfxPfk4PXZcK6Csh0cP0abANGoCzUD7B1hrUORMNEA7yPR/G+HgDO3aArFeBZAdD8Hg8fWMGGKghbIUDvggXvgwLsEK97V2VFA8g4wKKFK9TBUqrvddNDOnxPIjprNIjTovBzwwF8P9Qiu8Iit0Hs9gTOo/hix6Ea3kd5TwCu1IFnAUCRhAg3XBmLWAMQihuNmmDBW3ndu1orGIeQesE9hwKWQXDV4bCU5goHuIPw/f3x+t6AuyvOrraHCw1EOPA4HgpflIqqq6ybN96HW7pUCV7BWbD6Mhn1pTCPYqEFiI8Bgqawik8ByDYI7tvDOol738z1NL7eARC3xetbAO6mcJ+N4EJ9UXvzwUNhFTZPAa7Ug2cDhCIeFCBWgaXxAYy1AUZ9QOIHYPwBZ2Ov++91a4x/98f3PQYrVh9ZaB0VZNUBfmXUJMtbg83TgJPgFQyg+Y1GAkRvMxgrA8iqsEjVve7d+2bp7jcffL06vr8qXl8ZP08NWTkVaCUCNgle8UEUMAogBZTqe9/M735T/7u3Cq5yqp+lhqxEgSbBsx+IlqAs41Xw3W+Wvs/izyzxn6UEymlwlhqoJHhSbqv/BweZwbmF4PgUAAAAAElFTkSuQmCC;" parent="1" vertex="1">
          <mxGeometry x="408.44" y="353" width="78.44" height="70" as="geometry" />
        </mxCell>
        <mxCell id="af0LZ02g_DfYxjsQCie--12" value="serviceaccessgui" style="text;html=1;strokeColor=none;fillColor=none;align=center;verticalAlign=middle;whiteSpace=wrap;rounded=0;" parent="1" vertex="1">
          <mxGeometry x="417.66" y="415" width="60" height="30" as="geometry" />
        </mxCell>
        <mxCell id="af0LZ02g_DfYxjsQCie--13" value="" style="shape=image;verticalLabelPosition=bottom;labelBackgroundColor=default;verticalAlign=top;aspect=fixed;imageAspect=0;image=data:image/png,iVBORw0KGgoAAAANSUhEUgAAAJ4AAACNCAYAAABGx8NOAAAAAXNSR0ICQMB9xQAAAAlwSFlzAAAXEgAAFxIBZ5/SUgAAABl0RVh0U29mdHdhcmUATWljcm9zb2Z0IE9mZmljZX/tNXEAABqnSURBVHja7Z13eJRV2sbzgYQOhhZaJCIQjPRQhNCEAAECBEIMIZmUyZT0MqGDCkgLTQFFkC5IR9rSi4soIqigcom6LCCK4mIDXXFll/Od5+U+4WWYSSZkanL+uC8vSSbJzPm9TzvPeY7XlClTvKSknC35IUhJ8ErVB+/l9X8kCZ6UU0AjpWq1jXMNhhSTPnlHrjH55dIIoYTCCaBxlcnVGtrlGo1TTIbksxw2phb/+iP0PaUJPgmJA2HL0RmG5RiMS00Gw2U1aGN1eraqX6gavApc5UoTfBIYO8JmiDTUyNHptNlG40aTMfmWGrbJmji2secz7DP/x9ntsmUZp00NXnWuiqXJ8kl4igdbmUytNpBbNlOO3njS3IXmRY1gezp1Yldr1lJAM5cKvLpc1bjKc5WV4ElZdKGZBkMXky55Qa7B+IU5bMsGDGTHWrZiP1WtahE2K+A15qqlsnoSPAkcd6EhIZVytIaRJr1+DU8QflGDNilRy9aGhLAzTzRhf3iXLxQ2K+AFwupVFrGeBK90Q1fGZDTOMrdq00fGsJ1dgtl5P78igWYNvE4dOsTx3+UHd+tdGtythMw6dLT43jkGwyfmSQJBd6F+/WJBpwYvNmI4M8TEsrT4+CuZSbpjPAvO40lKf0pW1G5eglfCE4bIkJAqyZqEyLTExLmpsYkfZ3B3mqnVMZOZ5SM3S5nqw7hZNXijdZlMz8Gj35OtNzCTwZj/NZNeqfu9TK6+JIEogTOru1EpJMtgvJWt0ysgpMTFM130SDbOmMPmj8ljiyctYHmjprKJaTnMUmJxIjDQpsRCDd7pN06zr//2Nbu85xI7v/0cO7xsH1s2bREbm5rxwO+g3Q4q2VDc6ckQlnrYaEfhbpHXeE1ZWG5tcrjVmWaayDbOXcuOvn6InV1/hr2/6n128NWDbMe8HWzDjA1s1Qur2KKxC9j0rClsfEr2A4DMGx5ZYCnFEng3jt1g/3n/P+x/p/7H2IdM0eW9F9mR5fsVEO8D0Jh8ix4SsoSi9udJAJZq62Zee5s19gW2f+ku9u3+K+zf7/6bXT98nV3adYl9suETdnz5cbZv4T62dfZWtu7FdWz5c8vZ4nGL2cu5L7O52XPZzMwZ7IXUiWxcMlnCFGYeF27t1l0pHhcVPLX+eO8PdmLtMbbwubz7ITQYLlMtUW0FJXhuB5xOq66/Tc4ew3a+soVdPfCNsrh3Tt9htz+4rSzyz0d/Zt/s/YZ9vuVzduqNU+zokqNsz4I9+fCteH4Fe238a2zh6IVsvmk+m5M1h83KmMVmpHEIUyax8cZcNsqYyixtl50KCCgyeGr99PaP7MDru9n0URNVABqvmXS6qZpITU133wEpTRbOJNypUhLhC0bW4/YHf923oATef0/9VwHgt3d+U6weQfHFti/Yx29+zE6sPKEAuHfhXvbWnLcUt7tmyhq2bNIyxQJagnBKygtsYvJoNjr5wZjtYcFT69T6E2zehOmqn5nyKwHIk6TK7gpgiQcuU6vtre4IITf12dazVheRwKOFJ6v354k/Ffh+OvoT+/7A9+zy7svsy7e+ZJ9t+kyB5d0V77Ijrx1RINw+dzvbNHMTe2PqG/mWcNGYRewl00uKK87LzGMz02eyF9OmsslpE9mk1FHK3zM+LYt9uPbDYoEnRImJOhakBy1Hq4sRdUF3ArDEFn4NGk3DHKNxU/6+6djJysLYsoACPmH5yO3efOem4nr/dehf7Oq+qwqEX731FTu3+Rz7aN1HiiV8e+nbbP+i/Wzn/J1s86zNijte+fxKtnTCUvbKmFeUeJCsIcH46thX2dqpa5W4kSzplT1XlN9RHPCEKGxQx4EmnfFYpsYQ5E5JSIkDjp5u7lYn5hqS/1RqbZkmdmzVkSIvHsGntn5/nfxLsYCUdJAV/OXtXxQ3TJaQrNWFHReUWPAMz4BPrj7Jjr1+TMmCd7+0W4kJ109fz1ZPXq0kJeSWKSvekrdFsZiUvHy791vl59LvKS54Qmc2nVZiWAFgjsEw213cb4mzcia9/gPxQW99eT27efxGsRZPDSBZQDWEZAkJll///iv78ciP7NrBa0oy8s+d/2Tnt55XgKKkhDLiw4sPK4kJlWO2zd6muGaydmQpKX6k1/5+/He7gkeiGHbPa9vv1QR5YpWq0bRwtfUrKbFc2cwEXSwF1SJTpfqXvRbPEoQCRAKF3OOtE7cUcChOo5jwh4M/KFaMyjEiLqRYjuqBBCKJLCP9O7lteg39DAKbfoe9//YfDn9/z/1yb5CpM+Qi9nOJ9fN4K6cJ09TK0RveEFZu1cwliiWy98JZg9DcGgoIySWr48Lv9n+X75LJwpFFpBiR/o2+TpZTxHeOAE9t/e7tghgP0OfnCvg83bX6iU18ciUPE8s5EkJLLpksG4FGFpH+S2DS1+j76HWOgs48+xWxHxWf4Xqd2hHjqdCVNURHtxRnGagmJwrArlZBEKqtIbll+i/9P/07fY8jrZ2lXZDFk+fn1/3StdoQZ5ZdPDKeS9Vqu4l4jgqnxU0gnAGiOi4kyITo/8XXnAWd2vWunb38Xtyn1eqcde7D00olj6QmJAwSpRKK58x3HtxZamtoSa76u9RxX7ZON80Z8HkUdMnx8YP5h6NAR/urngKcJ4i2D50Jn2dBB0tHbUISFvuL9nwFfOla3WhHnvX1DPcarenIP4wb9IFQR4aExFnwaQ2Ogs9DoLubSNBOhITDufAZ4uOHOAI+t4ZOExnZKNdgvEIfwMZ5ayQUThR5FpHtGqI1newd87ltnS4kKKh6dpL+OL15qjdJGJwvSuCww/F1WEiYrz3hc0voaJRDVlLSq6I47IwtMCnLEkVmMgIYLlS2RIGncrHeqZqEBLEN5ojNfqmi7XCI9vrMpKT59prv4m7QldMMHdpWlE0oyJWL73rRwz8mNf0OrUmyJmEEph0Uy+W6VTJBQ2uy9cZPZQbrvplujt7wQ0hwSL3iZrpuFdelJmjHiX46T9oKKy0S5zkytbqVxZ1s5TZxXVhISBOTwai42IIO40i5TnSkUnQy62JiBhQn3nM1eMLFVsrS6o+IjX+5yO4r2q6Ey/0qKDCw5sO6XHdwsRV0MZoYkcW6c4uT1N1WKnGGNzUxMe9hXa6rrR1lR1Wy9IZz9EZc1UEsVfQsF+d2/+QhUlO43CJZPVdaOyWL1UXHxMqEwvNEIRGtW0Zi4pKHmWTq0oSCJmBKa+eZoqMGwuqF9uzZrKi7Gq60dpW0UTFxYltMWjvPtXrpidqlFDIVxeq50tpVz4C1k+WTEmH1Aopi9Vxm7TQREeFipolcRM+3esmxcdOLYvVsPdllD5UROxRk7dITtJvpD6axq4UdgimOJByOFXmru+c09Bf4uvrYavUKdImWRu17ijbMXe2SI4OlUeJweOTgwQNttXoFbtp7KnRC4tyqhM+xEscjUzUJ6zg3j9qylWa1PYlqbGIBPe2DEH83ndSnU/oSPseK9nCRZNxoXK8eXRRTqbDdDGvtSfRCH08Hj+aUEHxi9JeEz3ESnSuaiMgk1Q1FVnczLLYn4RrLBp4OHo0JowGKzhyIU1pFGwD0mafExb3J2alRWJJhsdSBmwSbeDp4/9j+D2UiE1k9R82dk7q/psez2285O77YRnvEWpJhvmlfDlkJdZg+5eng0dBDmktn7xGvUgVntz2CgzvDa3rbCh59Y1WuhlxtPB08mkdMo2HtNdRaqmDR2Wf63BOiop4rzN1aAq8arrAM8nTwaPQrTVMv7hh/KdskzmWkJWgPm7lbm8F7jKu9p4NX3ItLpIommrOMOO86Jafq7FaCJwFxqMSZjGaNm7XCFprFJlEJnpRdJdriQ3v0HIzqSEVLcZ4ET8quEqNto8MGjyoozpPgSdlV4hRaUnT0CsR5VS01DUjwpOwq0SaVokl4GxxZrOdJ8KQcktmmxid+xBlqrEow7ovzJHhSdpXoVMlM0l3mDNHRx5qWCskSPCmHgJeVpPueM9Scq7alNikJnpRdRacFFfB0+p84Q4HWMlsJnpTDPn/OUEs0nFSR4EkwnAlea676qnMYEjwpp4DXxlotT4In5Ujw2qHFToInwXCsaFi30qGiN/xOrXVosXugS0WCJ+WYcopWd02CJ8GT4EnwSrYu7P7y7iwVjeZTCZ4Ez2kSTQJGjeZDJBd+SC4keFKOkzhfGx8ZuZ0z1FZmtRI8p4guxqHPflj//otkHU+C5zQtfC5P+ew7d+iQxRlqJXcuJHhOkTjU7VvTly5YbsFVVzYJSPAcqvzisU7/b87PM1xPojtFtkVJQJyQ0cZoznF+unEFoB+vomwElYA4TOJG7xGDBm3k/HTheqJYHcieKgmecyXO1Aa1aEWJRUcuf9WE0DK2gheUGpdw3lOhm5RuUmanSPCcI7FVhviuv6p4XM3WU2ZV8YJ2+AFxXJlco7nGc020UZO4aGoQ/fCZXAu4VjTx9z/XtUNHlhCuYdNSp9lNM9JmsNmZs9mCUQvYmilr2N6Fe9lH6z5ShvbIaVGOlxjYox0xknYs+ph1H5cr7EC3mI/XADWYEC66CtwI+Exco2wUgToGsD7PNYvrlRo1auzp8XRnNqh3KJuTNcdumpczT4FuyYQlbMOMDezQ4kPs7PqzylRQAk/Ox3OsxASB8ND+q/k698BBnzrW5iGbTwQth5qLL14YzDWIayRXIpeOy1AEEbCpXNkAcAbB17Nzlz/6dO/O8rJmsaUTltpFyyYtYyufX8nenPYm2zV/Fzu+/Dj7fMvn7NrBa+z3479L8BxcRhHDehr7+xuRWDSxllhYG0VbAUP1/NEzT2lxKAAM5xpWBEVwPcsVA2jJYk5t36rV6cF9+7FxulFs2+xtdtH2udsV4PYt3MeOvX5MGcp4adcl9uORH5UPRo6idZxOrD1299bu6BjqSKG7LtpzNVInFrZMfRdxHpnJx2kkLdpbOnF1Bs22Khjg9uIKg+VMq1e79oLo8HCWEDmCvbPsGHtv5XvF1omVJ9jJ1SeVhOLc5nPs4q6LirVTx3cSPMdo8eT5Cni9u3Z/BfGd2Cqrau2yFWu3ZpfHi2rhBzQChE8UUWRum6ngpWr2cK7kZwcNvpIUPZLtXridXdhxwS4i2C7vvsyu7rvKrh++rmSzt07cktbOCdlslk7/R6UKFciwdC8svivogpVHAF8lAPgoZmDUeAjVQnbjjyehJ7nfXl26bEhLSGRzxk5T7qOwh34++rNyvQABR5Pe6ZoBgk5aO8fpwOu7744lCw8/yNd1MDxjY5tnIFuArywA9AaE5fGDiqpKKuvZCGWafj7VfIyZiUl/8SeFXdx9QbFMxRWBRiLXKq6TktA5TjQ14IXs0XcIvFbNAyfwde2LvKBhQWNoC7tET33rogDxYSSsZxWY3wDEfkOjwsIOmQxGtmL6YgUSe4hAE5I3ODpniywxKuoMQqhutrhZm+6rtfN1oY9iV4Q6U0Mb1KuXzi3ebeUWnv1X5HWhHqSbx2/kl1BaNGv+HLLZDsgFCr0+1FkXJJexUCOkIHT4iCHhh+mPpwt35YJ6nrVLiBpxFpsMvdB/V2A262zwRLZcAU+DP2o9A3kmlJSRpLtJb+Ly3otyUT3P2k3m6zgEpbYmqoHbtt3e6ATwHriySmS4A0P6KLd1U3cDBaxycd1b4jr4hMioT1Cb7aNKKqoXdnOj08CzYPVqIOXuCKunS41PuEZvhoY3y8V1X+VfBa833G7k5zcWu1nBqNcWmlS4Cjz1zkh9xARUVH62fevW8+gNkQmnoqRcZPcsn4gzFWF9+u2EteuL02SP2Xo7t1PBM7N6FbGBnG/1uOJjhg07SW+KLt2VC+2+CUWyJp6uBk1SWbsAWLvKtlg7V4FnbvVErDfcp5pPdiYSjTObTsvFdiNR4ieabAObNJvO1ysasV0b9G/abO2cDp6VWO9xZLjUdBr7zNNdVtKbm5iRc4dG18tFd72ou2f6qIkKdBEDBhzi65SAbqXOmOxeu7CLkV0OnoWm07qo63Wl3Qwy4SMGh79HbzJv7GSZ5bpRFmuIib1cyds7ja9RJGLzlmgarl4Ua+dK8NRWT+xmtBEdzxW8vTPoTdKbpc5Wufiuk2gCyEhMuulbu/Y49FaGwks9jli9oq2xnUvBs7CbURvFx05INOL8GjR4XsR7NAhGQuB8iZFjysmxli0Xogt9CBKK5vBWVWyp27kTeMLqiZNt9XEvQne4XG27li0X0Zsek5p+5/z2cxIGJ+rqgW+UOJs+/369etPkJz1cbC+0t4mEokJRXKzLwTNrt6+IrTThcnujZd4wqHefv0n4nCuqo4p2p5Hhw05R4y6y2H5wsY3hYkWxuIwngmfucp9Al0MoCpTJQ0JDD4jiMpl/CYdjoRMZbHxkJI2ioGRCgxDoaexQ+D6si3UL8Cy43KqIGwKQqofhTaeNDA8/Lcos5AYkJI4pm1Al4W6PXfQXPMkzoXQyBFWHQIRERc5i3Q48C2c9qiNFD0RjIb3peK6M2IiIM8qUgEyTtHwOsHRiBIV+ZMzXHLpcirNxWrCnKq7zUWexJQG8Mmbxnh/qRD2QbCTSh0FPooj55O6G/RIJEdMZ4uKuVqtSbRyOow5HvN0WrWwiriv3sC7WrcCzEO9Vwpv0R7LRC2d0aX8wU7hd2c1SfFG3CT3EyviJZ0d8yR/uUchgn8WWWBCSCbE74V1c6NwKPCvJRi0UKdviyRsO+LLCevfZK+DbOG+NhOghJAZl381eh36IiQ8EXRS6TtqjvlpHlUyULS50bgeehUaCKqpMNwg7G5HC8j0THLw5R29UzmzQ7F3ZTmV7EiFmnZCG9O17yAy6fugaaooMtmpxkwm3B89CpitOp6nhG47AN6NtixZLaDtHZLwy7it8N0L01FEzJz285EEQ06mha4YKQzV7Q+e24FmZauALsx8EtxuBLZz0OrVqTaH4RO16ZXPB/aLPY89r2/OtnFET993jfn5zMAUsCZ6kL2qo5tDZ3HXi8eBZga8OAt226I4YilILTaQy9ezSZQs9xaKzRe503LNyoj5HGtq//995EkGZazoe3uHwJO3hXgV0FR52Z8KjwbMCX20kHK2xr0tjE2IxEi2bP8VzDSNjrogPmbqZS2tfH50GU8dyGYna39q1br0CU7tSMHRzKKoG7RDO+JpbOntD5xHgWYn5xDiMFuiUGICznRSnZNBgyJDg4B1ZOv0t8aFT2zYF1aXFrVKZSRxBJC9AVq5alWrPI54zoL1pEB7e1niY65glEg6BzmPAswBfZXQvN8RdCp0Qn0Rgi0dxvfyDnjx8YNh7Aj4Kqqm/jCxBSQWOZtWJvVZSXETk5/Xr1s3jn0cu9l21qNGFYpRcCzzEtfBQ5ycSjoLOo8Azg08UmR/F3mFTuIqecL0xKA1Q4DzK389vfmJU1FdiMcgS0J1bJaX8QpacLJzIVkXy0Oapp5ZhJHAWQhENXGtvJBHN8fDWUBWHyzoSOI8Ez8L2WgXEI2KIZEs8xaHI0hIQy1CNagwtBFkA9XR4ioE8dd+XYlcKIUTf3N3h1yMudmwXtA7zp3Ng/RNRKhmA/e/WiOfq4uGtiIfZKdB5JHgW4BOTqGri6Q1AdvYMYpholAvSEFSPadboiUXRQ8I/VgNI1oIW0d0TEbLStOMgNvTVLhUWbizeZzpi3pFotOiN+tyT6HushXiugiOTiBIFngo+ddxXCZ0tvirr1xn7jeGqOczpAkAe+8yJHDT4FGV76kWk0gO5LneZ5UKb+ASbGPkqRMkT/f30IKmAy0DyoEFnST8kYK1g5eqhCaOSyrU6FTqPBs8G69cAsV8b9JL1w0LEqgDMQQw0vnVg4HJaRHUmLOJBKsk4E0QBGp3uohYw88tjYiIiPu0a1HETJumPUVk4PYAbjuOi3RD7BsAbqK1cOWckESUWPDP4hPWriNivNtxKABZATLBXAyiuQxgFqzGeYiSCMCUu/rqlW4PIzZH1oZ0AypIpRiQVJVmhhIBeQxeT0M8guMVdr+Yii0yuNKRbt508U5/K/8Zx+HuzEULo8H4iAFx3hBtPImOtA2/gUitX4sAzc71q61cZwbMvFqA5ABQWMBwxYCKyvgxYwXwI+UK/+HTbtm8O6z/whCFW870zrsNKS0j8hWLQHp07b/Nv2PBl/ndMAGyjVe40GaWRkchUQwFcEIDzR/Lgg8/hvoKwK6ErUeBZif3KqQD0UQEYgG23LtgqCoN7isViGuG6slH/Gi1AJAgIBu6aVwzo2ftgeGjoO9oR0ZdIBIwtYJE7F68hyxoWEnI0qEWLNc0DApZ43b2OazxAG4OHIAewpSBR0qAWNxgxbDAeqOZmwFVxB7daKsCz4n7LYQGqwALWgQtuiiSkI6xFXyxmJJKRBMRNKVj4bK9712oJGMcJICFb7nkT3ysAG6uCzITfk4kwwIiHQcAWDuvWE4Xz1tjUfwwPliXgyrgLcCUevAIAFBawOmLA+siCmyMR6QQI++Bk1VDUwGIBorhWKwXxVQYKtAJKE6xkrtf9d7uJfxPfk4PXZcK6Csh0cP0abANGoCzUD7B1hrUORMNEA7yPR/G+HgDO3aArFeBZAdD8Hg8fWMGGKghbIUDvggXvgwLsEK97V2VFA8g4wKKFK9TBUqrvddNDOnxPIjprNIjTovBzwwF8P9Qiu8Iit0Hs9gTOo/hix6Ea3kd5TwCu1IFnAUCRhAg3XBmLWAMQihuNmmDBW3ndu1orGIeQesE9hwKWQXDV4bCU5goHuIPw/f3x+t6AuyvOrraHCw1EOPA4HgpflIqqq6ybN96HW7pUCV7BWbD6Mhn1pTCPYqEFiI8Bgqawik8ByDYI7tvDOol738z1NL7eARC3xetbAO6mcJ+N4EJ9UXvzwUNhFTZPAa7Ug2cDhCIeFCBWgaXxAYy1AUZ9QOIHYPwBZ2Ov++91a4x/98f3PQYrVh9ZaB0VZNUBfmXUJMtbg83TgJPgFQyg+Y1GAkRvMxgrA8iqsEjVve7d+2bp7jcffL06vr8qXl8ZP08NWTkVaCUCNgle8UEUMAogBZTqe9/M735T/7u3Cq5yqp+lhqxEgSbBsx+IlqAs41Xw3W+Wvs/izyzxn6UEymlwlhqoJHhSbqv/BweZwbmF4PgUAAAAAElFTkSuQmCC;" parent="1" vertex="1">
          <mxGeometry x="624" y="353" width="78.44" height="70" as="geometry" />
        </mxCell>
        <mxCell id="af0LZ02g_DfYxjsQCie--14" value="fridgeservice" style="text;html=1;strokeColor=none;fillColor=none;align=center;verticalAlign=middle;whiteSpace=wrap;rounded=0;" parent="1" vertex="1">
          <mxGeometry x="633.22" y="413" width="60" height="30" as="geometry" />
        </mxCell>
        <mxCell id="af0LZ02g_DfYxjsQCie--15" value="ctxcoldstorageservice" style="text;html=1;strokeColor=none;fillColor=none;align=center;verticalAlign=middle;whiteSpace=wrap;rounded=0;fontSize=16;" parent="1" vertex="1">
          <mxGeometry x="640" y="190" width="60" height="30" as="geometry" />
        </mxCell>
        <mxCell id="af0LZ02g_DfYxjsQCie--16" value="" style="rounded=1;whiteSpace=wrap;html=1;arcSize=11;fillColor=#FFF2CC;strokeColor=#d79b00;" parent="1" vertex="1">
          <mxGeometry x="529.22" y="30" width="140.78" height="150" as="geometry" />
        </mxCell>
        <mxCell id="af0LZ02g_DfYxjsQCie--17" value="ctxbasicrobot" style="text;html=1;strokeColor=none;fillColor=none;align=center;verticalAlign=middle;whiteSpace=wrap;rounded=0;fontSize=16;container=1;" parent="1" vertex="1">
          <mxGeometry x="583" y="28" width="60" height="30" as="geometry" />
        </mxCell>
        <mxCell id="af0LZ02g_DfYxjsQCie--18" value="" style="shape=image;verticalLabelPosition=bottom;labelBackgroundColor=default;verticalAlign=top;aspect=fixed;imageAspect=0;image=data:image/png,iVBORw0KGgoAAAANSUhEUgAAAE8AAABHCAYAAABGZxrrAAAAAXNSR0ICQMB9xQAAAARnQU1BAACxjwv8YQUAAAAJcEhZcwAAHYYAAB2GAV2iE4EAAAAZdEVYdFNvZnR3YXJlAE1pY3Jvc29mdCBPZmZpY2V/7TVxAAAO20lEQVR4Xu2cCXSTVRbH/0nbJF3SNN1S6AKlLUIptWVVWQQGFVdGZ2TGDRTUcdfRcR0cAQd1FI/Hbc6MKKOOyojriDMgsigCSkGUTSilbYAudEnbtNnXuff1S+0WqG1SGsZ/zjtf+r7kS/LLfffed99rZP+pSvfiZ/VKcukYksoyfo5zVLulv/pfIWd5urpPsa1oB77euRMxFRW4cN48KCffK53tXw14eNMTSrB1exG27diBffv2Y6JeT60ck8vLsS4nB4a/PA3NWXfhwpQjWHN8iPSs/tGAhDfWux07d32Lz78pQrO+DGeV6TGp9DBG1dZIj2jV6rw81P/xUVz/2zlYU50h9fafBhy8r576JWrrDUg1mXDPZ58h3m6XznTV2jGF+O8vZmLGxPHIHj4cRxMvlc70jwYMPG3ZO9i2+Qt8v2sXEjU6qKNjUe9sxqhjRzG+pBTjDhVD3umdriF4W2degXRFLFrszdhX/j0SU5JROHYcpk7/BfYqpkiPDI5OKbx81xZ8tOpdFH29DfmZhSjMnoDB8eloMDbheMNxGJobUGWuRaOnBTZYkV5fg0n7D6CgtAzxZJmf5Y1E6dwHsWDy1VBGRQDhwPHKKuwo/gab96xHk7MJF108mwLK/dIrBlanBF5O8zq8vvxvaKlrxq+mXo1zx8wUH9xlcaGqvkq0hqYGNJoaYTKbYbVbYXc6YPJY0SKn+wQyrqURsYZ6aCZcgqsJXmy0mixTC0QYxbUgAwy1dfh4yyp8QSBnzroQcxfcSEFlaOubCID6Fd70uIN49ok/o6HCgPkX34a8kWcCbjrhouahux43bA4bzFazaM3mZtGMJiNaLC3UTLBZbbC5bLB7nXASyIKMfEwrnAlNTCzCvPHiddrEIMkg3VYPPvxqJT7Z+h6uvv4GeMfdKT2gb+o3eM6ty/DRu+/i+lm3YtrZZGlO6rRrWk9K8sqb4KWbx+OB2+2Gw+WA3WGHxWYR8JpNBNJsFEfuUykikZU2DNnp2dBEayjjJ8vrTuEEUUEvaXbipQ+fRonhEJY88TSK3OOlB/ROQYd3XsJh/Onh+xHtisbCeU8IS4C1IzR/EjC9XmGRAiRFXovdArPFjBZrC7weLxLiEqBL0CFKGQWZJ056ph+xJRLEksMHsPStRzHnuuuA8b23wqDCGyvbjj/ceSuumbEAs6ZRGmGlTlfPwHWQ3Cgg8o1BulwuAZMtVBGhgFKhJDeXID24B1IZ4XF4seT1BxE9OAajbnhVOvHTFDR4WU1rseSRh7DohmeQk3UGYO4FtG7E1iiOfCOgMr7JqJ3M6jqLrVAF/P3d51HadAjTHlwtnei5ggIvo/5TLFu8GM/dsRzaBHLiPRymp0RqIz5YsxKbDq7DRYs3SJ09U8CrKrm2L/HUY4/ixbv/AW38AAfHatHgVxdehRkjz8fGJy+WOnumgMKbHL0XC++7G8/d/grUmljANsDB+UQAr5h1FUYk5mHv8vlS58kVUHgP3HMH7r1yIZJ0utAB5xMBvHHO7TDXmOCgtKonChi84jduwdlZUzCmYAJgCTFwPlmAJTcuw+pV72OEeZPU6V8BgZdR9ykO7t6HeVfcLL7BkBWnUWHAwrlP4qk/PyZ1+ldA4D375OPiBeGQOkJZ5G4ys7KQmzIKpo1Lpc7u1Wd4zq+fw+iMAqRnDuky3QpZUTJ/z5yH8fF7qzBV/YPU2VV9gjcr5Sje/9dbuOlSmuLw7OF0EQ9fJTB78hy8/cYKqbOr+gRv9ccfYPro86HWUVrCV1JS1n6ixhP0UJEd+M3M67B5/Xq/1tdhhnFeYin279kDeZhM6jmBZHIsf/kFXD7ht9DFp8Dt5rqSf/FUanhaLiJVkb2b354KxRjxyqoXkDhKB1U3BdWO07OiF7D+wzUYMihTTMD9itjynDIyKhJ2mqC7PScGFyYPw5Hacsw4cxYumXR56PhGmv/WGKqx6J2HcOnSTV1W6AQ8X2fT+sWINyVi1sxLAxs5FcDaTathMNbjmuk3iEn9T57InyrFGnHXkwtwz58exsGoGVJnq9p83nTtIVjMVjjJkmCjjgA3vq7FaoXNTn8ErQgWBNGgmjBiEr4t2i7+ZEPzScDjupjT6RRVWy7vBEN8XYfLTs0JD9fcQ0UMb+RZ2P3dLlyg00udrWqzPC8B9LiD+6H4S/J6Qwgcy6HB8KG5OHzoIBwOhwh8Pv0ITzoGW97gGHbfpT5BGkUJgjoyFjXHq7uH11+faUCyI3C3LLzFP0BKPIYNyoa+vKyDkbXB+78WxcibLr/Jf4ZBniYtaQhqa2qFe/MFjZ/hsSjvHDt6rP/8k8xNGaGExWIWS6I+/QzPp5Mk7lGqaNisltMcHk2pgiJKtdwuNzyULfiCxukFj8Ddt/S+oAB0OikHlsvFQvvpCc8JzJ42WxwDKkoRrA4rIiIiTuNoS35r6oSpgS88EDyjqQmqyMju87zTRoEGxyJK1YZKxMUnUOT1tk1hTz94wRBROlpbjmRdivB7fuEpKJ/h6Qjv4whYo+spwum6oahwI+wNdrGqFh0dDXm7womo512QXI4Wkwn/evNNVPxQitTkDLi9XYuh4mn0ZLlMjrDwMLjcLhG6TyYuhlbWH0OqNhNXTZ8HdXRM142IA1UqI77ZvQWr936EuTf+Dhnp6VCpVKL+2QbPaDTi253fYtfOIgHSIyrJP1IWd8lXOp0ONLe04HDxAeRlFEIdpRbVEv/yQk7w1FExKMwZh3Ejx0MTowkdeJT2vLxyGWTJClx02WwMSknBhoYccUrAm6XTo4WAlJaWoqSkRIB0USbdDl2ryOq4LNPQ0CAg65TJOHvkVFGn8ycOTuFhYQJYdkY2stKzEBsZS/7Czy7OgaZoI+Y/Pge/nns9CgsLkZSUhHV1w8SptjK8zWZDfX09amtrYbVau7UmdpS8sZAfV1xcjKIvv8CiuU/DbDd3COGdxcOcTT1Zm4wkbRJUClVolOGVRuw99B2Wb/wrrp1/M3Kys6HRaLC2pnVTuIDHd3joslXx1lWev3UHg+HxucbGRpSWleGDd/6JBTNvRV5mgX/ro8vwYpGcopRKqRI7OUNmyMYa8cyKxYhMjcX08y7A0CFDEBUV1bYI1AaPxRbI0E5kRXzObDajXK/H5o0bUF9ahSW3LYPb3DXAtFfbDk66wRMCq2cRRtQ31uGBV2/HlXPnY1RuLlLI3603ZEsP6JSqiAhCH/Cz2ky/jcd7JGXa8VotcnJHobKpAnp9GcIUYQiT+W8CHA/VUADHovRqxdqXMTwvH/Hx8YiJiUF4OP+Dx4/qkue1X5f0J76IWq1GAl00f9xE/O2T58TyogDjp4XMUiOLfN0x/RH8cGwfRuSOFobCBuPzdT71aobBViSsj+DxP8yZvGZ8vmWNiEynhcgQnn3vceSNmYDExATExsaKokBn9QoeWydfjL+RxIREFIw/Bys3roDL7GrdZR7Korzu3+tXwRshJ8M4Q6QmPMrCKN3qrF7BY3H05OlKcnIy0tLSMDRnJBa9cX/rdCxURbOJyooKfLR1FUaPnwgdfTYeXQqFolt31mt4PuvTkvVxFDojLw8mmRVvfrxchPiQE48YShiWvPkA8sZORFpqqvhcbHW+pLizeg2PxQ6UrY9fZPCgQcinF918YBPWs/8LVjk8GOKtbxRIH1l+F5IzhmDosGEYPHgwEhIShNX5U5/gsTjyctbNQzeVXnDM2VPw1sbX8PWuzaEBUPpPoMWvPQiXSoYRo0cjnT7LIDKG7iJse/UZHg9fpVJJUSkRQygDZ4iFE6fglf++iA3b1g5sgAp6b5SzL3nlIRjdJuSeOQZpg1PFZ+AI2zmv66w+w2Pxt8PTFh6+mUOHIiMjAwUTJ+GdL1/H25+uaF2JH2hRONIo5vC/f+lm8tV2SkvGCYsbSu+fgwT785PlvAGBx+LZB2fhqeRoMzMz6dtLJ4CTsbX4Kyxd/ghcTkpj6A2fcrF/o9Hw/YGduPvl+YhJiseI/HwBjt83pyY8kk40XH3qMLcNhHhrbnNzMyorK0Xx4Pjx4zhyuARNdLzj8vuRN7KgdVuDg2Ye/S3+8pzA31c/j6KSrcjKLcBg+rIZ3DAKEgyO/RwbQk8UcHgsBsj1QQan1+tRVV2NWrpfXrwPmUnDcOtl90GbGN+6RNgfECl/4zL65h0b8PaGFYih9CotKwfJ5KfZxXBjn32yANFZQYHHOj+pTFRf6urqcOzYMVSQJTY0NKKmqgK1x/QozB6PK6dei2Tyk22/MxDIjd7sYyV/v333Fkp8V6LZaUZqZg4SCFSSBI7dDOeqPR2q7RU0eCyuEXJ9kOt/1WR9FZS9M8wmGtaG6ioCeRQj0nIxJW8Gzsk/t/XD8rthkM6fCJJ9Gc+g2ItTBDUamrBp9zp8uedzOGQuJKVmID4xCdq4OKTodCKi8uyIk+CeBIfuFFR4LK4R8pZdk8kkKtA8lGtqamAwGMTPfjTU1aK50QCbqQWFWeMwIj0P+cPGIClFhw67b3lN4ETvlID/UL4X+498j/36PThafwTahGRoqMXFa6GmYMZDk/M3zgriCCJXt3nO2htwrKDDYzFALuuzFbIvZHAMUFhhU5PY6G21WQliA6wE2dxihNzjhU47CElxOmgi4xAXo+2wUieTyWGyNqOmsRrVDZWoM9YiSh2LqGg1oumojmsdipyvcQFDR9bG8HiI8qyot9bWXv0CzydeaGKIvF7ClsjgGCQvKHGEZkvkc2ypYoM5QXU4bJTmOOF2cXRh82uVjO6GhUcgQqGEgixIpYoUVqSk6RQ7fk6bGBRPsbgxRB+0n+rb/Klf4fnElih+N8XhEIkqWyM3XrXjo8ViEdbIy5xOh1Os5InlAQLvoSPXE+VybmFiFqAgIGxlnKgzIAbla/w3D0+Gxs9j9dXifDol8HzyrZmIn/ogkNzY8hgeH3mYc2MrZNi+jYUMga1MWBpB48k7A2KL4yM37uPGpbNAWVpnnVJ47eXziwzTB6p943O+8wzE1xggH9my2vcz4EBZmD8NGHjtxSBZDKr9kcX3fcOPj777rGDD6qwBCa87MVAfKAbY36C6CvgfuJ2atMSWrTMAAAAASUVORK5CYII=;" parent="1" vertex="1">
          <mxGeometry x="559.22" y="69.5" width="79" height="71" as="geometry" />
        </mxCell>
        <mxCell id="af0LZ02g_DfYxjsQCie--19" value="transporttrolley" style="text;html=1;strokeColor=none;fillColor=none;align=center;verticalAlign=middle;whiteSpace=wrap;rounded=0;" parent="1" vertex="1">
          <mxGeometry x="339.22" y="300.5" width="60" height="30" as="geometry" />
        </mxCell>
        <mxCell id="af0LZ02g_DfYxjsQCie--38" value="" style="endArrow=classic;html=1;rounded=0;strokeWidth=1;strokeColor=#FF00FF;edgeStyle=orthogonalEdgeStyle;" parent="1" edge="1">
          <mxGeometry width="50" height="50" relative="1" as="geometry">
            <mxPoint x="349" y="233" as="sourcePoint" />
            <mxPoint x="550" y="78" as="targetPoint" />
            <Array as="points">
              <mxPoint x="348" y="233" />
              <mxPoint x="348" y="78" />
            </Array>
          </mxGeometry>
        </mxCell>
        <mxCell id="af0LZ02g_DfYxjsQCie--45" value="&lt;font style=&quot;font-size: 13px;&quot;&gt;engage&lt;/font&gt;" style="text;html=1;strokeColor=none;fillColor=none;align=center;verticalAlign=middle;whiteSpace=wrap;rounded=0;fontColor=#FF00FF;" parent="1" vertex="1">
          <mxGeometry x="422" y="58" width="27" height="20" as="geometry" />
        </mxCell>
        <mxCell id="af0LZ02g_DfYxjsQCie--50" value="" style="endArrow=classic;html=1;rounded=0;strokeWidth=1;strokeColor=#0000F0;edgeStyle=orthogonalEdgeStyle;fontColor=#0000F0;" parent="1" edge="1">
          <mxGeometry width="50" height="50" relative="1" as="geometry">
            <mxPoint x="372" y="234" as="sourcePoint" />
            <mxPoint x="549" y="105" as="targetPoint" />
            <Array as="points">
              <mxPoint x="372" y="105" />
            </Array>
          </mxGeometry>
        </mxCell>
        <mxCell id="af0LZ02g_DfYxjsQCie--51" value="&lt;font style=&quot;font-size: 13px;&quot;&gt;disengage&lt;/font&gt;" style="text;html=1;strokeColor=none;fillColor=none;align=center;verticalAlign=middle;whiteSpace=wrap;rounded=0;fontColor=#0000F0;" parent="1" vertex="1">
          <mxGeometry x="422" y="85" width="27" height="20" as="geometry" />
        </mxCell>
        <mxCell id="af0LZ02g_DfYxjsQCie--62" value="" style="endArrow=classic;html=1;rounded=0;strokeWidth=1;strokeColor=#FF00FF;entryX=-0.014;entryY=0.144;entryDx=0;entryDy=0;entryPerimeter=0;" parent="1" edge="1">
          <mxGeometry width="50" height="50" relative="1" as="geometry">
            <mxPoint x="495" y="373" as="sourcePoint" />
            <mxPoint x="622.9018400000001" y="374.01000000000005" as="targetPoint" />
          </mxGeometry>
        </mxCell>
        <mxCell id="af0LZ02g_DfYxjsQCie--63" value="&lt;font style=&quot;font-size: 13px;&quot;&gt;storerequest&lt;/font&gt;" style="text;html=1;strokeColor=none;fillColor=none;align=center;verticalAlign=middle;whiteSpace=wrap;rounded=0;fontColor=#FF00FF;" parent="1" vertex="1">
          <mxGeometry x="544" y="353" width="27" height="20" as="geometry" />
        </mxCell>
        <mxCell id="af0LZ02g_DfYxjsQCie--75" value="env" style="text;html=1;strokeColor=none;fillColor=none;align=center;verticalAlign=middle;whiteSpace=wrap;rounded=0;fontSize=16;" parent="1" vertex="1">
          <mxGeometry x="265" y="13" width="60" height="30" as="geometry" />
        </mxCell>
        <mxCell id="GLw_rSsJ-xKFX3Vhqt_--15" value="" style="endArrow=classic;html=1;rounded=0;strokeWidth=1;strokeColor=#FF00FF;entryX=-0.014;entryY=0.144;entryDx=0;entryDy=0;entryPerimeter=0;" edge="1" parent="1">
          <mxGeometry width="50" height="50" relative="1" as="geometry">
            <mxPoint x="493.55" y="401" as="sourcePoint" />
            <mxPoint x="621.4518400000001" y="402.01000000000005" as="targetPoint" />
          </mxGeometry>
        </mxCell>
        <mxCell id="GLw_rSsJ-xKFX3Vhqt_--16" value="&lt;font style=&quot;font-size: 13px;&quot;&gt;sendticket&lt;/font&gt;" style="text;html=1;strokeColor=none;fillColor=none;align=center;verticalAlign=middle;whiteSpace=wrap;rounded=0;fontColor=#FF00FF;" vertex="1" parent="1">
          <mxGeometry x="542.55" y="381" width="27" height="20" as="geometry" />
        </mxCell>
        <mxCell id="GLw_rSsJ-xKFX3Vhqt_--17" value="basicrobot" style="text;html=1;strokeColor=none;fillColor=none;align=center;verticalAlign=middle;whiteSpace=wrap;rounded=0;" vertex="1" parent="1">
          <mxGeometry x="568.72" y="136" width="60" height="30" as="geometry" />
        </mxCell>
      </root>
    </mxGraphModel>
  </diagram>
</mxfile>
